<svg xmlns="http://www.w3.org/2000/svg" width="1170" height="166" viewBox="0 0 1170 166"><defs><clipPath id="s8sea"><path fill="#fff" d="M10 29h1150c5.523 0 10 4.478 10 10v117c0 5.523-4.477 10-10 10H10c-5.117 0-9.337-3.844-9.929-8.802-.047-.393-.07-9.793-.07-10.199V50c0-.386.021-11.77.064-12.145C.634 32.87 4.865 29 10 29z"/></clipPath><linearGradient id="s8seb" x1="608" x2="553" y1="32" y2="31" gradientUnits="userSpaceOnUse"><stop offset="0" stop-color="#ff6b00"/><stop offset="1" stop-color="#a6c93a"/></linearGradient></defs><g><g><path fill="#fff" d="M617.427 37.7l-1.03-1.389a4.32 4.32 0 0 1-.042-5.092l1.002-1.4c1.532-2.142.822-5.123-1.53-6.37l-1.532-.81a4.336 4.336 0 0 1-2.269-4.574l.292-1.688c.446-2.582-1.517-4.97-4.176-5.081l-1.74-.066c-1.893-.085-3.535-1.346-4.064-3.145l-.488-1.65c-.737-2.527-3.55-3.829-6-2.784l-1.6.672a4.451 4.451 0 0 1-5.04-1.1l-1.154-1.275c-1.768-1.948-4.872-1.936-6.627.054l-1.141 1.29a4.47 4.47 0 0 1-5.025 1.169l-1.615-.663c-2.464-.998-5.248.36-5.958 2.885l-.46 1.66a4.38 4.38 0 0 1-4.008 3.2l-1.74.097c-2.659.152-4.58 2.567-4.093 5.147l.32 1.69c.348 1.84-.542 3.693-2.199 4.6l-1.517.84c-2.325 1.273-2.993 4.268-1.42 6.38l1.03 1.388a4.32 4.32 0 0 1 .042 5.092l-1.003 1.403c-1.53 2.142-.82 5.12 1.532 6.368l1.53.812a4.331 4.331 0 0 1 2.27 4.569l-.292 1.69c-.446 2.582 1.517 4.97 4.176 5.08l1.74.07c1.893.082 3.535 1.345 4.064 3.144l.488 1.647c.737 2.527 3.55 3.831 6 2.79l1.6-.674a4.452 4.452 0 0 1 5.04 1.099l1.155 1.276c1.781 1.949 4.886 1.935 6.625-.056l1.142-1.29a4.469 4.469 0 0 1 5.025-1.169l1.615.659c2.464 1.004 5.248-.356 5.958-2.883l.46-1.66a4.385 4.385 0 0 1 4.008-3.2l1.74-.095c2.659-.152 4.58-2.567 4.093-5.149l-.32-1.689c-.349-1.84.542-3.692 2.199-4.598l1.517-.838a4.32 4.32 0 0 0 1.42-6.384z"/></g><g><g><path fill="#fff" d="M10 29h1150c5.523 0 10 4.478 10 10v117c0 5.523-4.477 10-10 10H10c-5.117 0-9.337-3.844-9.929-8.802-.047-.393-.07-9.793-.07-10.199V50c0-.386.021-11.77.064-12.145C.634 32.87 4.865 29 10 29z"/><path fill="none" stroke="#f4d3bb" stroke-linecap="round" stroke-linejoin="round" stroke-miterlimit="20" stroke-width="6" d="M10 29h1150c5.523 0 10 4.478 10 10v117c0 5.523-4.477 10-10 10H10c-5.117 0-9.337-3.844-9.929-8.802-.047-.393-.07-9.793-.07-10.199V50c0-.386.021-11.77.064-12.145C.634 32.87 4.865 29 10 29z" clip-path="url(&quot;#s8sea&quot;)"/></g><g><path fill="#fff" d="M501 26h170v17H501z"/></g><g><path fill="#a8ca3f" d="M608 48.844A1.15 1.15 0 0 1 606.854 50h-52.708A1.151 1.151 0 0 1 553 48.844c0-.64.513-1.157 1.146-1.157h1.146V34.97c0-.64.513-1.156 1.145-1.156h6.875a1.15 1.15 0 0 1 1.146 1.156v12.718h4.584V23.406c0-.638.513-1.156 1.145-1.156h6.875c.633 0 1.146.518 1.146 1.156v24.281h4.584V28.031c0-.638.513-1.156 1.145-1.156h6.875a1.15 1.15 0 0 1 1.146 1.156v19.656h4.584V14.156c0-.638.513-1.156 1.145-1.156h6.875c.633 0 1.146.518 1.146 1.156v33.531h1.146c.633 0 1.146.517 1.146 1.157zm-45.833-12.72h-4.584v11.563h4.584zm13.75-11.562h-4.584v23.125h4.584zm13.75 4.625h-4.584v18.5h4.584zm13.75-13.875h-4.584v32.375h4.584z"/><path fill="url(#s8seb)" d="M608 48.844A1.15 1.15 0 0 1 606.854 50h-52.708A1.151 1.151 0 0 1 553 48.844c0-.64.513-1.157 1.146-1.157h1.146V34.97c0-.64.513-1.156 1.145-1.156h6.875a1.15 1.15 0 0 1 1.146 1.156v12.718h4.584V23.406c0-.638.513-1.156 1.145-1.156h6.875c.633 0 1.146.518 1.146 1.156v24.281h4.584V28.031c0-.638.513-1.156 1.145-1.156h6.875a1.15 1.15 0 0 1 1.146 1.156v19.656h4.584V14.156c0-.638.513-1.156 1.145-1.156h6.875c.633 0 1.146.518 1.146 1.156v33.531h1.146c.633 0 1.146.517 1.146 1.157zm-45.833-12.72h-4.584v11.563h4.584zm13.75-11.562h-4.584v23.125h4.584zm13.75 4.625h-4.584v18.5h4.584zm13.75-13.875h-4.584v32.375h4.584z"/></g></g></g></svg>