<svg xmlns="http://www.w3.org/2000/svg" width="330" height="614" viewBox="0 0 330 614"><defs><mask id="idlob" width="2" height="2" x="-1" y="-1"><path fill="#fff" d="M30 30h270v553H30z"/><path d="M45 30h51v21a8 8 0 0 0 8 8h122a8 8 0 0 0 8-8V30h51c8.284 0 15 6.716 15 15v523c0 8.284-6.716 15-15 15H45c-8.284 0-15-6.716-15-15V45c0-8.284 6.716-15 15-15z"/></mask><filter id="idloa" width="370" height="653" x="-20" y="-20" filterUnits="userSpaceOnUse"><feOffset in="SourceGraphic" result="FeOffset1255Out"/><feGaussianBlur in="FeOffset1255Out" result="FeGaussianBlur1256Out" stdDeviation="16 16"/></filter></defs><g><g><g><g filter="url(#idloa)"><path fill="none" d="M45 30h51v21a8 8 0 0 0 8 8h122a8 8 0 0 0 8-8V30h51c8.284 0 15 6.716 15 15v523c0 8.284-6.716 15-15 15H45c-8.284 0-15-6.716-15-15V45c0-8.284 6.716-15 15-15z" mask="url(&quot;#idlob&quot;)"/><path fill="#1d5b98" fill-opacity=".1" d="M45 30h51v21a8 8 0 0 0 8 8h122a8 8 0 0 0 8-8V30h51c8.284 0 15 6.716 15 15v523c0 8.284-6.716 15-15 15H45c-8.284 0-15-6.716-15-15V45c0-8.284 6.716-15 15-15z"/></g><path fill="#a8ca3f" d="M45 30h51v21a8 8 0 0 0 8 8h122a8 8 0 0 0 8-8V30h51c8.284 0 15 6.716 15 15v523c0 8.284-6.716 15-15 15H45c-8.284 0-15-6.716-15-15V45c0-8.284 6.716-15 15-15z"/></g><g><path fill="#fff" d="M47 37h43v18c0 5.523 4.477 10 10 10h130c5.523 0 10-4.477 10-10V37h43c5.523 0 10 4.477 10 10v519c0 5.522-4.477 10-10 10H47c-5.523 0-10-4.478-10-10V47c0-5.523 4.477-10 10-10z"/></g><g><path fill="#eef2f7" d="M293 532v34c0 5.523-4.477 10-10 10H47c-5.523 0-10-4.477-10-10v-34z"/></g><g/><g/><g><g><text dominant-baseline="text-before-edge" style="line-height:16.52398px" fill="#666" font-family="'Roboto','Roboto-Regular'" font-size="14" font-style="none" font-weight="400" transform="translate(96 549)"><tspan style="font-kerning:normal">Ваши данные защищены!</tspan></text></g></g><g><path fill="#ff6b00" d="M74.753 562.963a.926.926 0 0 1-.253.037.929.929 0 0 1-.253-.037c-9.247-2.895-9.102-9.756-8.996-14.764a72.23 72.23 0 0 0 .022-1.538c0-.385.346-.695.773-.695 3.304 0 5.819-.859 7.915-2.702a.834.834 0 0 1 1.077 0c2.097 1.843 4.613 2.702 7.917 2.702.427 0 .772.31.772.695 0 .49.011 1 .023 1.538.105 5.007.25 11.869-8.997 14.764zm7.452-14.737c-.007-.303-.013-.596-.017-.881-3.095-.118-5.57-.965-7.688-2.63-2.118 1.665-4.593 2.512-7.687 2.63-.004.285-.01.578-.017.881-.106 5.035-.226 10.733 7.704 13.336 7.93-2.603 7.81-8.301 7.705-13.336zm-3.952 2.381a.653.653 0 0 1 0 .988l-4.275 3.862a.808.808 0 0 1-.546.202.808.808 0 0 1-.547-.202l-2.137-1.929a.652.652 0 0 1 0-.987.83.83 0 0 1 1.092 0l1.592 1.436 3.728-3.37a.839.839 0 0 1 1.093 0z"/></g><g><path fill="#fd7532" d="M284 198h3s40 40.652 40 112c0 59.082-27.58 97.96-36.937 109.449l5.759 4.56-17.289 6.366 1.765-18.656 7.935 6.281C298.52 404.955 324 366.902 324 310c0-71.204-40-112-40-112z"/></g></g><g><g><g><text dominant-baseline="text-before-edge" style="line-height:18px" fill="#444" font-family="'Roboto','Roboto-Regular'" font-size="16" font-style="none" font-weight="400" transform="translate(142 32)"><tspan style="font-kerning:normal">Б</tspan><tspan style="font-kerning:normal">есплатно</tspan></text></g></g><g><path fill="#fd7532" d="M134 37.973v5.593a.67.67 0 0 1-.663.673h-1.48c-.227 1.01-1.11 1.761-2.171 1.761-1.06 0-1.944-.758-2.17-1.761h-7.944c-.226 1.01-1.11 1.761-2.17 1.761a2.23 2.23 0 0 1-2.172-1.761h-2.016a.67.67 0 0 1-.663-.673v-2.345h-2.58a.67.67 0 0 1-.662-.673c0-.37.298-.675.663-.675H113.22c.364 0 .663.304.663.675v2.35h1.309c.05 0 .094.006.143.016a2.225 2.225 0 0 1 2.066-1.43c.934 0 1.735.59 2.066 1.42.028-.006.055-.006.083-.006h6.242V32.346h-11.91v2.345a.67.67 0 0 1-.662.673H109.972a.67.67 0 0 1-.663-.673.67.67 0 0 1 .663-.673h2.58v-2.345a.67.67 0 0 1 .662-.674h13.235a.67.67 0 0 1 .663.674V33.2h2.778c1.155 0 2.193.443 2.922 1.246.774.851 1.188 2.074 1.188 3.528zm-15.698 5.772a.908.908 0 0 0-.9-.915c-.498 0-.901.41-.901.915 0 .505.403.914.9.914s.9-.409.9-.914zm12.284 0a.909.909 0 0 0-.9-.915c-.497 0-.9.41-.9.915 0 .505.403.914.9.914a.914.914 0 0 0 .9-.914zm2.088-5.767c0-2.149-1.038-3.433-2.778-3.433h-2.779v8.353h.509a2.228 2.228 0 0 1 2.06-1.414c.928 0 1.729.59 2.06 1.414h.928zm-13.72.287h-11.291a.67.67 0 0 1-.663-.674.67.67 0 0 1 .663-.673h11.296l-.492-.5a.681.681 0 0 1 0-.953.656.656 0 0 1 .94 0l1.623 1.65.006.005c.01.016.028.027.039.044.005.012.01.018.016.029.011.01.017.016.022.028l.017.034c.005.011.01.016.016.028l.017.033c0 .011.005.018.01.028.007.012.007.023.012.034.005.006.005.017.011.028 0 .011.005.023.005.034 0 .01.006.022.006.034 0 .016.006.027.006.038a.546.546 0 0 1 .005.162c0 .013-.005.018-.005.03 0 .016-.006.027-.006.038 0 .012-.006.024-.006.034 0 .012 0 .023-.005.034-.006.006-.006.017-.011.028-.005.011-.005.023-.011.034 0 .01-.006.016-.011.028a1.175 1.175 0 0 1-.017.033c-.005.012-.01.017-.016.029a3.274 3.274 0 0 1-.017.033c-.01.012-.016.017-.022.028-.005.011-.011.017-.016.028-.011.017-.028.028-.04.045l-.005.006-1.707 1.733a.674.674 0 0 1-.47.197.664.664 0 0 1-.469-.197.682.682 0 0 1 0-.954z"/></g></g></g></svg>